<svg width="32" height="32" viewBox="0 0 32 32" fill="none" xmlns="http://www.w3.org/2000/svg">
<g clip-path="url(#clip0_15_38)">
<rect width="32" height="32" fill="#020617"/>
<path d="M16 32.0029C24.8366 32.0029 32 24.8395 32 16.0029C32 7.16634 24.8366 0.00290012 16 0.00290012C7.16344 0.00290012 0 7.16634 0 16.0029C0 24.8395 7.16344 32.0029 16 32.0029Z" fill="#020617"/>
<path d="M10.6664 9.0861L16 6.0029L21.3336 9.0861L19.3336 10.1693L16 8.2525L12.5832 10.1693L10.6664 9.0861ZM21.2496 12.9197L19.3328 11.8365L16 13.7533L12.5832 11.8365L10.6664 12.9197V15.1701L14 17.0869V21.0037L15.9168 22.1701L17.8336 21.0037V17.1701L21.1672 15.2533V12.9197H21.2496ZM21.2496 19.0861V16.8365L19.3336 18.0029V20.1693L21.2496 19.0861ZM22.6664 19.8365L19.3328 21.7533V24.0029L24.6664 20.9197V14.7533L22.6664 16.0029V19.8365ZM20.7504 11.0029L22.6672 12.1693V14.4197L24.584 13.2533V11.0029L22.6672 9.8365L20.7504 11.0029ZM14 22.5861V24.8357L15.9168 26.0021L17.8336 24.8357V22.5861L15.9168 23.7525L14 22.5861ZM10.6664 19.0861L12.5832 20.1693V17.9197L10.6664 16.7533V19.0861ZM14 11.0029L15.9168 12.1693L17.9168 11.0029L16 9.8365L14 11.0029ZM9.24956 12.1693L11.2496 11.0029L9.24956 9.8365L7.33356 11.0029V13.2525L9.25036 14.4189L9.24956 12.1693ZM9.24956 16.0029L7.33276 14.8365V21.0029L12.6664 24.0861V21.8365L9.33276 19.9197V16.0029H9.24956Z" fill="#F0B90B"/>
</g>
<defs>
<clipPath id="clip0_15_38">
<rect width="32" height="32" fill="white"/>
</clipPath>
</defs>
</svg>
